# xmcd
#
# Track frame offsets: 
#        150
#        14476
#        31746
#        53960
#        64620
#        82431
#        95816
#        112366
#        122293
#        136975
#        154270
#        169190
#
# Disc length: 2433 seconds
#
# Revision: 0
# Processed by: cddbd v1.5.2PL0 Copyright (c) Steve Scherf et al.
# Submitted via: ExactAudioCopyFreeDBPlugin 1.0
#
DISCID=a8097f0c
DTITLE=Blueswalkers - big black dogs
DYEAR=2010
DGENRE=Blues
TTITLE0=Caldonia
TTITLE1=Start it up
TTITLE2=Ain´t nobody´s business
TTITLE3=Cakewalk into town
TTITLE4=Folsom prison blues
TTITLE5=I´m tore down
TTITLE6=Dock of the bay
TTITLE7=Big black dogs
TTITLE8=Tougher than tough
TTITLE9=I got a woman
TTITLE10=Stolen car blues
TTITLE11=Doodlin´
EXTD=
EXTT0=
EXTT1=
EXTT2=
EXTT3=
EXTT4=
EXTT5=
EXTT6=
EXTT7=
EXTT8=
EXTT9=
EXTT10=
EXTT11=
PLAYORDER=
